<?xml version="1.0" encoding="utf-8"?>
<!-- Generator: Adobe Illustrator 23.0.5, SVG Export Plug-In . SVG Version: 6.00 Build 0)  -->
<svg version="1.1" id="Layer_1" xmlns="http://www.w3.org/2000/svg" xmlns:xlink="http://www.w3.org/1999/xlink" x="0px" y="0px"
	 viewBox="0 0 713.2 244.4" style="enable-background:new 0 0 713.2 244.4;" xml:space="preserve">
<style type="text/css">
	.st0{fill:url(#SVGID_1_);stroke:#1D1D1B;stroke-width:0.25;stroke-miterlimit:10;}
	.st1{fill:#FFFFFF;stroke:#1D1D1B;stroke-miterlimit:10;}
	.st2{fill:#FFFFFF;stroke:#1D1D1B;stroke-width:0.25;stroke-miterlimit:10;}
	.st3{fill:url(#SVGID_2_);stroke:#1D1D1B;stroke-width:0.25;stroke-miterlimit:10;}
	.st4{fill:#BD1622;stroke:#1D1D1B;stroke-width:0.25;stroke-miterlimit:10;}
	.st5{fill:url(#SVGID_3_);stroke:#1D1D1B;stroke-width:0.25;stroke-miterlimit:10;}
</style>
<linearGradient id="SVGID_1_" gradientUnits="userSpaceOnUse" x1="12.4721" y1="202.2779" x2="123.8785" y2="202.2779" gradientTransform="matrix(1 0 0 -1 0 324.6118)">
	<stop  offset="0" style="stop-color:#FFEE25"/>
	<stop  offset="1.780000e-02" style="stop-color:#FFE920"/>
	<stop  offset="0.102" style="stop-color:#FED60E"/>
	<stop  offset="0.1886" style="stop-color:#FDCB04"/>
	<stop  offset="0.2809" style="stop-color:#FDC700"/>
	<stop  offset="0.6685" style="stop-color:#F08F34"/>
	<stop  offset="0.8876" style="stop-color:#E86031"/>
	<stop  offset="1" style="stop-color:#E2312D"/>
</linearGradient>
<path class="st0" d="M68.5,29.9c0,0,0.9,8.4,3.8,12.4s9.4,9.1,9.4,9.1c6.4,5.7,7.4,3,13,8c8.5,7.7,16.5,23.5,13.6,37.2
	C106,107,97.2,116.7,95,119.1c-1.2,1.4-2,2.1-3.2,3.8c-5.1,7.1-6.7,15.8-5.6,22.1c1.2,6.9,6.8,4.7,6.8,4.7
	c7.3,7.1,11.3,17.2,9.7,26.2c-1.5,8.6-7.8,14.7-8.4,14.2c-0.3-0.2,2.1-4,2.6-9.8c0.2-1.7,0.6-6.8-1.8-12c-2.2-4.9-5.5-7.1-7.1-8.2
	c-0.2-0.1-3.4-2.2-7.5-2.7c-7.2-0.9-17.9,3.1-23.9,13.7c-6.2,11.1-4.7,25.2-1.8,33.3c7.5,20.8,36.3,32.1,68.9,18
	c-10.3,8.9-32.4,25.1-59.7,21.3C37.5,240,13.9,218.3,15.6,211c3-1.1,7.6-3.1,12.1-7c2.6-2.2,9.7-8.3,10.4-16c0.8-8.1-6.2-12-13.5-23
	c-4.2-6.3-14.1-21.3-11.8-33.9c4-21.5,41.8-24.6,41.8-42c0-7.1-5-7.7-9-19.8c-3.2-9.6-1-21.6,2.7-29c4.4-8.9,16.3-21.9,15.5-31
	s-0.9-9.1-0.9-9.1s4.9,5.3,5.3,8.3c0.4,3,0,15.9,0,15.9L68.5,29.9z"/>
<path class="st1" d="M15.5,159.2"/>
<path class="st2" d="M14.7,208.4"/>
<linearGradient id="SVGID_2_" gradientUnits="userSpaceOnUse" x1="0.125" y1="153.7558" x2="36.9728" y2="153.7558" gradientTransform="matrix(1 0 0 -1 0 324.6118)">
	<stop  offset="0" style="stop-color:#FFEE25"/>
	<stop  offset="1.780000e-02" style="stop-color:#FFE920"/>
	<stop  offset="0.102" style="stop-color:#FED60E"/>
	<stop  offset="0.1886" style="stop-color:#FDCB04"/>
	<stop  offset="0.2809" style="stop-color:#FDC700"/>
	<stop  offset="0.6685" style="stop-color:#F08F34"/>
	<stop  offset="0.8876" style="stop-color:#E86031"/>
	<stop  offset="1" style="stop-color:#E2312D"/>
</linearGradient>
<path class="st3" d="M16.3,209.4c4.6-1.9,7.9-4.2,9.9-5.9c2.4-2,12.3-10.1,10.6-18c-0.3-1.5-0.9-2.5-1.3-3c-1.1-1.9-13-17.8-13-17.8
	C8.4,145,11.4,129.6,11.4,129.6c-3.7,5.6-9.1,15.6-10.9,29.2c-3.1,23.7,13.8,52.6,14.3,53.3l-0.1-2L16.3,209.4z"/>
<path class="st4" d="M15.5,193.4c-5-10.6-7.5-21-8.4-30.7c0,0,7.2,17,16.8,18.9C33.5,183.5,16,194.4,15.5,193.4z"/>
<path class="st2" d="M125.5,92.8"/>
<linearGradient id="SVGID_3_" gradientUnits="userSpaceOnUse" x1="53.8149" y1="163.9339" x2="144.5862" y2="163.9339" gradientTransform="matrix(1 0 0 -1 0 324.6118)">
	<stop  offset="0" style="stop-color:#FFEE25"/>
	<stop  offset="1.780000e-02" style="stop-color:#FFE920"/>
	<stop  offset="0.102" style="stop-color:#FED60E"/>
	<stop  offset="0.1886" style="stop-color:#FDCB04"/>
	<stop  offset="0.2809" style="stop-color:#FDC700"/>
	<stop  offset="0.6685" style="stop-color:#F08F34"/>
	<stop  offset="0.8876" style="stop-color:#E86031"/>
	<stop  offset="1" style="stop-color:#E2312D"/>
</linearGradient>
<path class="st5" d="M129.7,116.7c-4.3,6.2-5.8,15.4-3.2,22.3c2.4,6.6,6.6,5.8,11.7,13.8c4.3,6.7,5.2,13.1,5.9,18.1
	c0.7,5.1,1.7,17.7-4.8,31.4c-2.5,5.3-6.5,13.7-15.7,19.1c-5.6,3.3-10.5,3.9-17,4.9c-6.9,1.1-21.9,3.4-34.9-4.8
	c-5.7-3.5-9.2-7.9-10-8.9c-3.9-5-5.6-9.6-6.1-11.3c-0.4-1.4-2.1-6.7-1.7-13.8c0.2-3.6,0.5-9.5,4.1-15.7c1.6-2.7,5.8-10,14.6-12.4
	c1.4-0.4,8.6-2.3,14.6,1.3c7.5,4.5,10.7,16.3,6.4,28.3c0,0.3,0,1.8,0.7,2c0.6,0.2,1.3-0.6,1.9-1.2c4.4-4.6,4.2-4.2,4.4-4.6
	c2.7-3.9,4.9-11.1,3.5-18.4c-0.6-3-1.6-5.6-2.1-6.7c-0.8-1.8-1.6-3.2-3.2-6c-2.5-4.5-3.3-5.5-4.6-6c-1.9-0.8-2.8,0.4-4.3-0.4
	c0,0-3.8-2.8-2.7-9c1.1-6.1,3.6-10.4,3.6-10.4s4.9-7.4,17.1-11.7s18.3-6.1,21-12.9s2.4-10,2.4-10s2.7,6.5,1.2,13.9
	S129.7,116.7,129.7,116.7z"/>
<path class="st2" d="M61,58.5"/>
<path class="st4" d="M123,118.7l-1.3,1.3l-1.5,2.4c-0.5,0.9-1.2,2.4-1.9,4.3c-2.4,7-2.4,16.3,2.1,23c2.9,4.3,4.9,3.5,8.4,7.3
	c8.3,8.8,8.7,25.3,3.2,37.5c-1.2,2.7-6.2,13-18.1,18.4c-19.3,8.8-38-3.9-39-4.6c0,0,9.2-3.4,10.6-3.9c8.4-3.2,24.3-14.4,26.2-30.1
	c0.3-2.2,0.6-12-4.6-19.8c0,0-8.4-11-8.9-16.3c0-0.4,0-0.8,0-0.8c0-0.9,0.1-2.6,0.9-4.4c0.6-1.3,1.4-2.3,2.6-3.5
	c3.1-3,6.1-4.8,6.5-5c4.9-2.9,9.7-5.9,13.4-5.9C123,118.7,123,118.7,123,118.7z"/>
<path class="st4" d="M84.5,86.6c3.4,7.9,2.6,17.4-1.4,24.2c-2.2,3.9-4.4,5-6.8,7.5c-4.8,5-9.4,14.3-8.1,32.8c0,0-6.2,2.3-11.7,6.2
	c-5.6,3.9-10.8,13.9-10.8,13.9l-6.6-6.1c0,0-11.4-14-11.3-23c0.2-9,27.8-27.2,27.8-27.2c1.9-1.1,4.6-2.8,7.2-5.7
	c9.9-11.1,7-26.6,6.5-28.8c0,0-2.8-9.1-8.3-18.1c-5.5-9-5.5-9-5.5-9s8.2,4.6,11.7,8.9c0,0,6.5,6,10.3,11.3
	C81.2,78.8,84.5,86.6,84.5,86.6z"/>
<path class="st4" d="M87.7,197.2l-18.1,7.4c0,0-5.1-5.1-8-10.8s-0.8-13.2-0.8-13.2c0.5-1.7,1.9-5.9,5.8-9c4.6-3.6,13.6-6.7,19.8-1.5
	c0,0,4.7,4.6,2.9,15.8S87.7,197.2,87.7,197.2z"/>
<g>
	<path d="M221.8,153.3l10.8-0.1l0.4,67.2l-30.6,0.2l-0.5-89.3l-44,0.3l-0.1-26.5l30.4-0.2l0.1,9.1l33.5-0.2L221.8,153.3z M284.5,97
		l-12,26.6l-31.8,0.2l0.1,22.1l-10.8,0.1l-0.2-39.5l-33.5,0.2l0-9.1L284.5,97z"/>
	<path d="M267.8,152.1l0.1,13.9l38.4-0.2v0.3l-6.4,19.4l-24.9,0.1l0-9.1l-15.7,0.1l0-11.4l-7.9,0l-0.1-32.6l55-0.3l0.1,19.6
		L267.8,152.1z M268,200.4l38.4-0.2l0.1,19.6l-55,0.3l-0.2-51.4l4.9,0l0,11.4l15.7-0.1l0,5.6l-3.9,0L268,200.4z"/>
	<path d="M319.5,175.8l0.1-1.9l-9.2-0.5c2.3-24.7,23.8-43.4,48.7-42.1c12.2,0.6,23.9,6.3,32,15.4l-15.5,14c-4.5-5-10.9-8.1-17.6-8.5
		c-14.1-0.8-26.1,10.1-26.9,24.3c-0.4,7.6,2.5,14.6,7.5,19.5l-9.6,6.9C322.4,195.4,318.9,185.7,319.5,175.8L319.5,175.8z
		 M387.9,212.1c-9.1,8.4-21.5,12.8-33.8,12.1c-24.9-1.3-44.2-22.3-43.9-47.1l5.5,0.3c-0.1,10.8,4.2,21.4,11.8,29.3l1.1,1.2l13-9.4
		c3.9,2.8,8.5,4.6,13.7,4.9c6.8,0.4,13.6-2.1,18.6-6.7L387.9,212.1z"/>
	<path d="M420,177.5l21.1-0.3l0.1,10.8l-26.5,0.4l0.5,35.1l-16.3,0.2l-1.2-90.5l16.3-0.2l0.5,35.1l5.4-0.1L420,177.5z M459.7,132.3
		l1.2,90.4l-16.4-8.6l-0.5-40.6l-21.1,0.3l-0.1-5.9l21.1-0.3l-0.5-35.1L459.7,132.3z"/>
	<path d="M548.1,186.5l7.5,0.1c-0.2,20.2-15.2,36.5-33.6,36.3l-51.6-0.4l0.2-26l51.6,0.4c5.3,0,9.7-4.7,9.8-10.5s-4.3-10.6-9.6-10.7
		l-25.5-0.2c-18.4-0.1-33.2-16.7-33-36.8l15.5,0.2c0.5,10.4,12.5,18.9,21.2,19l22,0.2C536.8,158.1,548.2,170.9,548.1,186.5z
		 M485.2,133.1l-16.1-0.1c0.2-20.2,15.2-36.4,33.6-36.3l58,0.4l-23.4,25.8l-34.8-0.3c-5.3,0-9.7,4.7-9.8,10.5
		c0,5.9,4.3,10.7,9.6,10.7l25.5,0.2c7.2,0.1,15.5,4.2,22,10.9c6.5,6.7,11.1,15.9,11,25.9l-7-0.1c-0.7-15-14.4-28.4-26.1-28.5
		l-25.5-0.2C492.8,152.1,485.2,143.6,485.2,133.1z"/>
	<path d="M582.4,152.6l0.2,14l40.3-0.5v0.3l-6.6,19.7l-26.2,0.3l-0.1-9.3l-16.5,0.2l-0.1-11.6L565,166l-0.4-33l57.8-0.7l0.2,19.9
		L582.4,152.6z M583,201.5l40.3-0.5l0.2,19.9l-57.8,0.7l-0.6-52l5.2-0.1l0.1,11.6l16.5-0.2l0.1,5.6l-4.1,0L583,201.5z"/>
	<path d="M637.2,170.3l0.2-2l-9.5-1.1c4-26.5,27.4-45.5,53.1-42.6c12.6,1.4,24.3,8.1,32.1,18.4l-17,14.2
		c-4.3-5.7-10.8-9.4-17.7-10.2c-14.5-1.6-27.7,9.4-29.4,24.6c-0.9,8.2,1.7,15.9,6.5,21.5l-10.3,6.9
		C638.9,191.7,636,180.9,637.2,170.3L637.2,170.3z M705.6,213.5c-10,8.5-23,12.6-35.8,11.1c-25.7-2.9-44.3-26.6-42.3-53.4l5.6,0.6
		c-0.8,11.7,2.9,23.3,10.3,32.3l1.1,1.3l14-9.4c3.8,3.3,8.5,5.5,13.8,6.1c7,0.8,14.2-1.5,19.7-6.1L705.6,213.5z"/>
</g>
</svg>
