<?xml version="1.0" encoding="UTF-8" standalone="no"?>
<!-- Created with Inkscape (http://www.inkscape.org/) -->

<svg
   width="158.88092mm"
   height="283.28403mm"
   viewBox="0 0 158.88092 283.28403"
   version="1.1"
   id="svg5"
   inkscape:version="1.1.1 (3bf5ae0d25, 2021-09-20)"
   sodipodi:docname="Up-Arrow2.svg"
   xmlns:inkscape="http://www.inkscape.org/namespaces/inkscape"
   xmlns:sodipodi="http://sodipodi.sourceforge.net/DTD/sodipodi-0.dtd"
   xmlns="http://www.w3.org/2000/svg"
   xmlns:svg="http://www.w3.org/2000/svg">
  <sodipodi:namedview
     id="namedview7"
     pagecolor="#ffffff"
     bordercolor="#666666"
     borderopacity="1.0"
     inkscape:pageshadow="2"
     inkscape:pageopacity="0.0"
     inkscape:pagecheckerboard="0"
     inkscape:document-units="mm"
     showgrid="false"
     showguides="true"
     inkscape:zoom="0.37059484"
     inkscape:cx="508.64174"
     inkscape:cy="778.4782"
     inkscape:window-width="1920"
     inkscape:window-height="1017"
     inkscape:window-x="-8"
     inkscape:window-y="-8"
     inkscape:window-maximized="1"
     inkscape:current-layer="layer1"
     inkscape:guide-bbox="true">
    <sodipodi:guide
       position="-2.9694455,182.93768"
       orientation="1,0"
       id="guide985" />
    <sodipodi:guide
       position="177.65796,285.74538"
       orientation="0,-1"
       id="guide987" />
  </sodipodi:namedview>
  <defs
     id="defs2">
    <clipPath
       clipPathUnits="userSpaceOnUse"
       id="clipPath1703">
      <rect
         style="fill:#00ff00;stroke-width:0.275432"
         id="rect1705"
         width="172.42642"
         height="299.14496"
         x="6.6130147"
         y="7.837719" />
    </clipPath>
  </defs>
  <g
     inkscape:label="Layer 1"
     inkscape:groupmode="layer"
     id="layer1"
     style="display:inline"
     transform="translate(-20.818002,-5.6740849)">
    <g
       id="g327"
       transform="matrix(0.9606105,0,0,0.9606105,11.496026,-4.3162643)"
       clip-path="url(#clipPath1703)">
      <g
         id="Layer_2" />
      <g
         id="Layer_1">
        <g
           id="Layer_3"
           class="st0">
          <rect
             y="0"
             class="st1"
             width="186.10001"
             height="313.29999"
             id="rect137"
             x="0" />
        </g>
        <sodipodi:namedview
           bordercolor="#666666"
           borderopacity="1.0"
           fit-margin-bottom="0"
           fit-margin-left="0"
           fit-margin-right="0"
           fit-margin-top="0"
           id="base"
           pagecolor="#ffffff"
           showgrid="false"
           showguides="true"
           inkscape:pageshadow="2"
           inkscape:pageopacity="0.0"
           inkscape:pagecheckerboard="0">
          <sodipodi:guide
             id="guide3716"
             orientation="1,0"
             position="54.945949,141.35487" />
          <sodipodi:guide
             id="guide3736"
             orientation="1,0"
             position="-1.2025684e-07,109.81512" />
          <sodipodi:guide
             id="guide3738"
             orientation="0,1"
             position="39.138657,65.117642" />
          <sodipodi:guide
             id="guide3740"
             orientation="1,0"
             position="110.15547,126.60504" />
          <sodipodi:guide
             id="guide3742"
             orientation="0,1"
             position="1.7016809,102.55462" />
          <sodipodi:guide
             id="guide3744"
             orientation="1,0"
             position="64.096639,131.71008" />
          <sodipodi:guide
             id="guide3746"
             orientation="1,0"
             position="44.559371,92.229163" />
          <sodipodi:guide
             id="guide3748"
             orientation="0,1"
             position="16.222688,93.365553" />
        </sodipodi:namedview>
        <g
           id="g244">
          <g
             id="g220">
            <linearGradient
               id="SVGID_1_"
               gradientUnits="userSpaceOnUse"
               x1="33.141998"
               y1="-336.81"
               x2="144.5484"
               y2="-336.81"
               gradientTransform="matrix(1,0,0,-1,0,-203.3883)">
              <stop
                 offset="0"
                 style="stop-color:#FFEE25"
                 id="stop149" />
              <stop
                 offset="1.780000e-02"
                 style="stop-color:#FFE920"
                 id="stop151" />
              <stop
                 offset="0.102"
                 style="stop-color:#FED60E"
                 id="stop153" />
              <stop
                 offset="0.1886"
                 style="stop-color:#FDCB04"
                 id="stop155" />
              <stop
                 offset="0.2809"
                 style="stop-color:#FDC700"
                 id="stop157" />
              <stop
                 offset="0.6685"
                 style="stop-color:#F08F34"
                 id="stop159" />
              <stop
                 offset="0.8876"
                 style="stop-color:#E86031"
                 id="stop161" />
              <stop
                 offset="1"
                 style="stop-color:#E2312D"
                 id="stop163" />
            </linearGradient>
            <path
               class="st2"
               d="m 89.2,41.1 c 0,0 0.9,8.4 3.8,12.4 2.9,4 9.4,9.1 9.4,9.1 6.4,5.7 7.4,3 13,8 8.5,7.7 16.5,23.5 13.6,37.2 -2.3,10.4 -11.1,20.1 -13.3,22.5 -1.2,1.4 -2,2.1 -3.2,3.8 -5.1,7.1 -6.7,15.8 -5.6,22.1 1.2,6.9 6.8,4.7 6.8,4.7 7.3,7.1 11.3,17.2 9.7,26.2 -1.5,8.6 -7.8,14.7 -8.4,14.2 -0.3,-0.2 2.1,-4 2.6,-9.8 0.2,-1.7 0.6,-6.8 -1.8,-12 -2.2,-4.9 -5.5,-7.1 -7.1,-8.2 -0.2,-0.1 -3.4,-2.2 -7.5,-2.7 -7.2,-0.9 -17.9,3.1 -23.9,13.7 -6.2,11.1 -4.7,25.2 -1.8,33.3 7.5,20.8 36.3,32.1 68.9,18 -10.3,8.9 -32.4,25.1 -59.7,21.3 -26.5,-3.7 -50.1,-25.4 -48.4,-32.7 3,-1.1 7.6,-3.1 12.1,-7 2.6,-2.2 9.7,-8.3 10.4,-16 0.8,-8.1 -6.2,-12 -13.5,-23 -4.2,-6.3 -14.1,-21.3 -11.8,-33.9 4,-21.5 41.8,-24.6 41.8,-42 0,-7.1 -5,-7.7 -9,-19.8 -3.2,-9.6 -1,-21.6 2.7,-29 4.4,-8.9 16.3,-21.9 15.5,-31 -0.8,-9.1 -0.9,-9.1 -0.9,-9.1 0,0 4.9,5.3 5.3,8.3 0.4,3 0,15.9 0,15.9 z"
               id="path166"
               style="fill:url(#SVGID_1_)" />
            <path
               class="st3"
               d="M 36.2,170.4"
               id="path168" />
            <path
               class="st4"
               d="M 35.4,219.6"
               id="path170" />
            <linearGradient
               id="SVGID_2_"
               gradientUnits="userSpaceOnUse"
               x1="20.8046"
               y1="-385.4263"
               x2="57.6791"
               y2="-385.4263"
               gradientTransform="matrix(1,0,0,-1,0,-203.3883)">
              <stop
                 offset="0"
                 style="stop-color:#FFEE25"
                 id="stop172" />
              <stop
                 offset="1.780000e-02"
                 style="stop-color:#FFE920"
                 id="stop174" />
              <stop
                 offset="0.102"
                 style="stop-color:#FED60E"
                 id="stop176" />
              <stop
                 offset="0.1886"
                 style="stop-color:#FDCB04"
                 id="stop178" />
              <stop
                 offset="0.2809"
                 style="stop-color:#FDC700"
                 id="stop180" />
              <stop
                 offset="0.6685"
                 style="stop-color:#F08F34"
                 id="stop182" />
              <stop
                 offset="0.8876"
                 style="stop-color:#E86031"
                 id="stop184" />
              <stop
                 offset="1"
                 style="stop-color:#E2312D"
                 id="stop186" />
            </linearGradient>
            <path
               class="st5"
               d="m 37,220.6 c 4.6,-1.9 7.9,-4.2 9.9,-5.9 2.4,-2 12.3,-10.1 10.6,-18 -0.3,-1.5 -0.9,-2.5 -1.3,-3 -1.1,-1.9 -13,-17.8 -13,-17.8 C 29.1,156.2 32.1,140.8 32.1,140.8 28.4,146.4 23,156.4 21.2,170 18.1,193.7 35,222.6 35.5,223.3 l -0.1,-2 z"
               id="path189"
               style="fill:url(#SVGID_2_)" />
            <path
               class="st6"
               d="m 36.2,204.6 c -5,-10.6 -7.5,-21 -8.4,-30.7 0,0 7.2,17 16.8,18.9 9.6,1.9 -7.9,12.8 -8.4,11.8 z"
               id="path191" />
            <linearGradient
               id="SVGID_3_"
               gradientUnits="userSpaceOnUse"
               x1="74.523499"
               y1="-375.15359"
               x2="165.29539"
               y2="-375.15359"
               gradientTransform="matrix(1,0,0,-1,0,-203.3883)">
              <stop
                 offset="0"
                 style="stop-color:#FFEE25"
                 id="stop193" />
              <stop
                 offset="1.780000e-02"
                 style="stop-color:#FFE920"
                 id="stop195" />
              <stop
                 offset="0.102"
                 style="stop-color:#FED60E"
                 id="stop197" />
              <stop
                 offset="0.1886"
                 style="stop-color:#FDCB04"
                 id="stop199" />
              <stop
                 offset="0.2809"
                 style="stop-color:#FDC700"
                 id="stop201" />
              <stop
                 offset="0.6685"
                 style="stop-color:#F08F34"
                 id="stop203" />
              <stop
                 offset="0.8876"
                 style="stop-color:#E86031"
                 id="stop205" />
              <stop
                 offset="1"
                 style="stop-color:#E2312D"
                 id="stop207" />
            </linearGradient>
            <path
               class="st7"
               d="m 150.4,127.9 c -4.3,6.2 -5.8,15.4 -3.2,22.3 2.4,6.6 6.6,5.8 11.7,13.8 4.3,6.7 5.2,13.1 5.9,18.1 0.7,5.1 1.7,17.7 -4.8,31.4 -2.5,5.3 -6.5,13.7 -15.7,19.1 -5.6,3.3 -10.5,3.9 -17,4.9 -6.9,1.1 -21.9,3.4 -34.9,-4.8 -5.7,-3.5 -9.2,-7.9 -10,-8.9 -3.9,-5 -5.6,-9.6 -6.1,-11.3 -0.4,-1.4 -2.1,-6.7 -1.7,-13.8 0.2,-3.6 0.5,-9.5 4.1,-15.7 1.6,-2.7 5.8,-10 14.6,-12.4 1.4,-0.4 8.6,-2.3 14.6,1.3 7.5,4.5 10.7,16.3 6.4,28.3 0,0.3 0,1.8 0.7,2 0.6,0.2 1.3,-0.6 1.9,-1.2 4.4,-4.6 4.2,-4.2 4.4,-4.6 2.7,-3.9 4.9,-11.1 3.5,-18.4 -0.6,-3 -1.6,-5.6 -2.1,-6.7 -0.8,-1.8 -1.6,-3.2 -3.2,-6 -2.5,-4.5 -3.3,-5.5 -4.6,-6 -1.9,-0.8 -2.8,0.4 -4.3,-0.4 0,0 -3.8,-2.8 -2.7,-9 1.1,-6.1 3.6,-10.4 3.6,-10.4 0,0 4.9,-7.4 17.1,-11.7 12.2,-4.3 18.3,-6.1 21,-12.9 2.7,-6.8 2.4,-10 2.4,-10 0,0 2.7,6.5 1.2,13.9 -1.5,7.4 -2.8,9.1 -2.8,9.1 z"
               id="path210"
               style="fill:url(#SVGID_3_)" />
            <path
               class="st4"
               d="M 81.7,69.7"
               id="path212" />
            <path
               class="st6"
               d="m 143.7,129.9 -1.3,1.3 -1.5,2.4 c -0.5,0.9 -1.2,2.4 -1.9,4.3 -2.4,7 -2.4,16.3 2.1,23 2.9,4.3 4.9,3.5 8.4,7.3 8.3,8.8 8.7,25.3 3.2,37.5 -1.2,2.7 -6.2,13 -18.1,18.4 -19.3,8.8 -38,-3.9 -39,-4.6 0,0 9.2,-3.4 10.6,-3.9 8.4,-3.2 24.3,-14.4 26.2,-30.1 0.3,-2.2 0.6,-12 -4.6,-19.8 0,0 -8.4,-11 -8.9,-16.3 0,-0.4 0,-0.8 0,-0.8 0,-0.9 0.1,-2.6 0.9,-4.4 0.6,-1.3 1.4,-2.3 2.6,-3.5 3.1,-3 6.1,-4.8 6.5,-5 4.9,-2.9 9.7,-5.9 13.4,-5.9 1.4,0.1 1.4,0.1 1.4,0.1 z"
               id="path214" />
            <path
               class="st6"
               d="m 105.2,97.8 c 3.4,7.9 2.6,17.4 -1.4,24.2 -2.2,3.9 -4.4,5 -6.8,7.5 -4.8,5 -9.4,14.3 -8.1,32.8 0,0 -6.2,2.3 -11.7,6.2 -5.6,3.9 -10.8,13.9 -10.8,13.9 l -6.6,-6.1 c 0,0 -11.4,-14 -11.3,-23 0.2,-9 27.8,-27.2 27.8,-27.2 1.9,-1.1 4.6,-2.8 7.2,-5.7 9.9,-11.1 7,-26.6 6.5,-28.8 0,0 -2.8,-9.1 -8.3,-18.1 -5.5,-9 -5.5,-9 -5.5,-9 0,0 8.2,4.6 11.7,8.9 0,0 6.5,6 10.3,11.3 3.7,5.3 7,13.1 7,13.1 z"
               id="path216" />
            <path
               class="st6"
               d="m 108.4,208.4 -18.1,7.4 c 0,0 -5.1,-5.1 -8,-10.8 -2.9,-5.7 -0.8,-13.2 -0.8,-13.2 0.5,-1.7 1.9,-5.9 5.8,-9 4.6,-3.6 13.6,-6.7 19.8,-1.5 0,0 4.7,4.6 2.9,15.8 -1.8,11.2 -1.6,11.3 -1.6,11.3 z"
               id="path218" />
          </g>
          <g
             id="g242">
            <path
               class="st8"
               d="m 89.2,41.1 c 0,0 0.9,8.4 3.8,12.4 2.9,4 9.4,9.1 9.4,9.1 6.4,5.7 7.4,3 13,8 8.5,7.7 16.5,23.5 13.6,37.2 -2.3,10.4 -11.1,20.1 -13.3,22.5 -1.2,1.4 -2,2.1 -3.2,3.8 -5.1,7.1 -6.7,15.8 -5.6,22.1 1.2,6.9 6.8,4.7 6.8,4.7 7.3,7.1 11.3,17.2 9.7,26.2 -1.5,8.6 -7.8,14.7 -8.4,14.2 -0.3,-0.2 2.1,-4 2.6,-9.8 0.2,-1.7 0.6,-6.8 -1.8,-12 -2.2,-4.9 -5.5,-7.1 -7.1,-8.2 -0.2,-0.1 -3.4,-2.2 -7.5,-2.7 -7.2,-0.9 -17.9,3.1 -23.9,13.7 -6.2,11.1 -4.7,25.2 -1.8,33.3 7.5,20.8 36.3,32.1 68.9,18 -10.3,8.9 -32.4,25.1 -59.7,21.3 -26.5,-3.7 -50.1,-25.4 -48.4,-32.7 3,-1.1 7.6,-3.1 12.1,-7 2.6,-2.2 9.7,-8.3 10.4,-16 0.8,-8.1 -6.2,-12 -13.5,-23 -4.2,-6.3 -14.1,-21.3 -11.8,-33.9 4,-21.5 41.8,-24.6 41.8,-42 0,-7.1 -5,-7.7 -9,-19.8 -3.2,-9.6 -1,-21.6 2.7,-29 4.4,-8.9 16.3,-21.9 15.5,-31 -0.8,-9.1 -0.9,-9.1 -0.9,-9.1 0,0 4.9,5.3 5.3,8.3 0.4,3 0,15.9 0,15.9 z"
               id="path222" />
            <path
               class="st8"
               d="M 36.2,170.4"
               id="path224" />
            <path
               class="st8"
               d="M 35.4,219.6"
               id="path226" />
            <path
               class="st8"
               d="m 37,220.6 c 4.6,-1.9 7.9,-4.2 9.9,-5.9 2.4,-2 12.3,-10.1 10.6,-18 -0.3,-1.5 -0.9,-2.5 -1.3,-3 -1.1,-1.9 -13,-17.8 -13,-17.8 C 29.1,156.2 32.1,140.8 32.1,140.8 28.4,146.4 23,156.4 21.2,170 18.1,193.7 35,222.6 35.5,223.3 l -0.1,-2 z"
               id="path228" />
            <path
               class="st8"
               d="m 36.2,204.6 c -5,-10.6 -7.5,-21 -8.4,-30.7 0,0 7.2,17 16.8,18.9 9.6,1.9 -7.9,12.8 -8.4,11.8 z"
               id="path230" />
            <path
               class="st8"
               d="m 150.4,127.9 c -4.3,6.2 -5.8,15.4 -3.2,22.3 2.4,6.6 6.6,5.8 11.7,13.8 4.3,6.7 5.2,13.1 5.9,18.1 0.7,5.1 1.7,17.7 -4.8,31.4 -2.5,5.3 -6.5,13.7 -15.7,19.1 -5.6,3.3 -10.5,3.9 -17,4.9 -6.9,1.1 -21.9,3.4 -34.9,-4.8 -5.7,-3.5 -9.2,-7.9 -10,-8.9 -3.9,-5 -5.6,-9.6 -6.1,-11.3 -0.4,-1.4 -2.1,-6.7 -1.7,-13.8 0.2,-3.6 0.5,-9.5 4.1,-15.7 1.6,-2.7 5.8,-10 14.6,-12.4 1.4,-0.4 8.6,-2.3 14.6,1.3 7.5,4.5 10.7,16.3 6.4,28.3 0,0.3 0,1.8 0.7,2 0.6,0.2 1.3,-0.6 1.9,-1.2 4.4,-4.6 4.2,-4.2 4.4,-4.6 2.7,-3.9 4.9,-11.1 3.5,-18.4 -0.6,-3 -1.6,-5.6 -2.1,-6.7 -0.8,-1.8 -1.6,-3.2 -3.2,-6 -2.5,-4.5 -3.3,-5.5 -4.6,-6 -1.9,-0.8 -2.8,0.4 -4.3,-0.4 0,0 -3.8,-2.8 -2.7,-9 1.1,-6.1 3.6,-10.4 3.6,-10.4 0,0 4.9,-7.4 17.1,-11.7 12.2,-4.3 18.3,-6.1 21,-12.9 2.7,-6.8 2.4,-10 2.4,-10 0,0 2.7,6.5 1.2,13.9 -1.5,7.4 -2.8,9.1 -2.8,9.1 z"
               id="path232" />
            <path
               class="st8"
               d="M 81.7,69.7"
               id="path234" />
            <path
               class="st8"
               d="m 143.7,129.9 -1.3,1.3 -1.5,2.4 c -0.5,0.9 -1.2,2.4 -1.9,4.3 -2.4,7 -2.4,16.3 2.1,23 2.9,4.3 4.9,3.5 8.4,7.3 8.3,8.8 8.7,25.3 3.2,37.5 -1.2,2.7 -6.2,13 -18.1,18.4 -19.3,8.8 -38,-3.9 -39,-4.6 0,0 9.2,-3.4 10.6,-3.9 8.4,-3.2 24.3,-14.4 26.2,-30.1 0.3,-2.2 0.6,-12 -4.6,-19.8 0,0 -8.4,-11 -8.9,-16.3 0,-0.4 0,-0.8 0,-0.8 0,-0.9 0.1,-2.6 0.9,-4.4 0.6,-1.3 1.4,-2.3 2.6,-3.5 3.1,-3 6.1,-4.8 6.5,-5 4.9,-2.9 9.7,-5.9 13.4,-5.9 1.4,0.1 1.4,0.1 1.4,0.1 z"
               id="path236" />
            <path
               class="st8"
               d="m 105.2,97.8 c 3.4,7.9 2.6,17.4 -1.4,24.2 -2.2,3.9 -4.4,5 -6.8,7.5 -4.8,5 -9.4,14.3 -8.1,32.8 0,0 -6.2,2.3 -11.7,6.2 -5.6,3.9 -10.8,13.9 -10.8,13.9 l -6.6,-6.1 c 0,0 -11.4,-14 -11.3,-23 0.2,-9 27.8,-27.2 27.8,-27.2 1.9,-1.1 4.6,-2.8 7.2,-5.7 9.9,-11.1 7,-26.6 6.5,-28.8 0,0 -2.8,-9.1 -8.3,-18.1 -5.5,-9 -5.5,-9 -5.5,-9 0,0 8.2,4.6 11.7,8.9 0,0 6.5,6 10.3,11.3 3.7,5.3 7,13.1 7,13.1 z"
               id="path238" />
            <path
               class="st8"
               d="m 108.4,208.4 -18.1,7.4 c 0,0 -5.1,-5.1 -8,-10.8 -2.9,-5.7 -0.8,-13.2 -0.8,-13.2 0.5,-1.7 1.9,-5.9 5.8,-9 4.6,-3.6 13.6,-6.7 19.8,-1.5 0,0 4.7,4.6 2.9,15.8 -1.8,11.2 -1.6,11.3 -1.6,11.3 z"
               id="path240" />
          </g>
        </g>
        <g
           id="g252">
          <polygon
             class="st9"
             points="74,232.1 30.4,232.1 12.1,250.6 29.7,250.6 29.7,303.7 49.3,303.7 49.3,250.6 55.6,250.6 "
             id="polygon246" />
          <path
             class="st9"
             d="m 112,253.2 c -5.7,-5.2 -12.6,-7.7 -20.7,-7.7 -7.9,0 -14.7,2.6 -20.6,7.8 -5.8,5.2 -8.7,12.4 -8.7,21.6 0,9.3 2.9,16.5 8.6,21.7 5.8,5.2 12.6,7.7 20.7,7.7 7.9,0 14.7,-2.6 20.6,-7.9 5.8,-5.3 8.7,-12.4 8.7,-21.5 -0.1,-9.4 -2.9,-16.6 -8.6,-21.7 z m -10.8,32.3 c -2.8,2.5 -6.2,3.8 -10.1,3.8 -3.8,0 -7.2,-1.3 -10,-3.9 -2.9,-2.6 -4.3,-6.1 -4.3,-10.5 0,-4.7 1.4,-8.2 4.2,-10.7 2.8,-2.5 6.2,-3.7 10.1,-3.7 3.8,0 7.2,1.3 10,3.9 2.9,2.6 4.3,6.1 4.3,10.5 0,4.5 -1.4,8.1 -4.2,10.6 z"
             id="path248" />
          <path
             class="st9"
             d="m 168,251.8 c -4.1,-3.6 -9.1,-5.5 -15.2,-5.5 h -15.1 l -15.5,15.8 v 41.6 h 15.5 v -42.5 h 11 c 2.5,0 4.4,0.7 5.5,2 1.1,1.4 1.7,3.1 1.7,5.3 0,1.9 -0.6,3.5 -1.8,4.7 -1.2,1.2 -3,1.8 -5.2,1.8 l -7.1,0.1 v 14 h 11.5 c 5.6,0 10.5,-2.1 14.6,-6.3 4.1,-4.2 6.2,-9.1 6.2,-14.5 C 174,261 172,255.5 168,251.8 Z"
             id="path250" />
        </g>
      </g>
    </g>
  </g>
  <g
     inkscape:groupmode="layer"
     id="layer2"
     inkscape:label="Layer 2"
     style="display:none"
     transform="translate(-20.818002,-5.6740849)" />
  <style
     type="text/css"
     id="style134">
	.st0{display:none;}
	.st1{display:inline;fill:#FF1800;}
	.st2{fill:url(#SVGID_1_);stroke:#000000;stroke-width:0.25;stroke-miterlimit:10;}
	.st3{fill:#FFFFFF;stroke:#000000;stroke-miterlimit:10;}
	.st4{fill:#FFFFFF;stroke:#000000;stroke-width:0.25;stroke-miterlimit:10;}
	.st5{fill:url(#SVGID_2_);stroke:#000000;stroke-width:0.25;stroke-miterlimit:10;}
	.st6{fill:#BD1622;stroke:#000000;stroke-width:0.25;stroke-miterlimit:10;}
	.st7{fill:url(#SVGID_3_);stroke:#000000;stroke-width:0.25;stroke-miterlimit:10;}
	.st8{fill:none;stroke:#231F20;stroke-width:2;}
	.st9{fill:#FF0000;stroke:#231F20;stroke-width:2;stroke-miterlimit:10;}
</style>
</svg>
